<?xml version="1.0" encoding="UTF-8"?>
<svg version="1.1" xmlns="http://www.w3.org/2000/svg" width="1772" height="1004">
<path d="M0 0 C584.76 0 1169.52 0 1772 0 C1772 331.32 1772 662.64 1772 1004 C1187.24 1004 602.48 1004 0 1004 C0 672.68 0 341.36 0 0 Z " fill="#FEFEFE" transform="translate(0,0)"/>
<path d="M0 0 C1.41249023 -0.04930664 1.41249023 -0.04930664 2.85351562 -0.09960938 C9.43797427 -0.15001233 13.94586697 1.01173874 18.9375 5.4375 C25.8023778 14.42553589 26.10140799 27.60338566 24.9375 38.4375 C23.66367819 46.84613928 21.85996448 55.15634686 19.9375 63.4375 C19.65076416 64.69618896 19.36402832 65.95487793 19.06860352 67.25170898 C16.86908222 76.64564004 13.93569471 85.52289066 10.375 94.5 C10.11494171 95.16259827 9.85488342 95.82519653 9.58694458 96.50787354 C-14.64067771 158.1218024 -14.64067771 158.1218024 -42.8125 171.3125 C-49.59863791 173.96012199 -56.32341872 174.93741125 -63.3828125 172.703125 C-71.22532563 169.06515313 -75.83844054 163.71778753 -80.546875 156.64453125 C-82.01383329 154.36442908 -82.01383329 154.36442908 -84.0625 152.4375 C-88.4203057 160.42433523 -92.75185286 168.42511407 -97.0625 176.4375 C-97.58521484 177.40864746 -98.10792969 178.37979492 -98.64648438 179.38037109 C-105.35711568 191.90030382 -111.55467409 204.60775342 -117.48388672 217.51098633 C-122.32344052 228.04245723 -127.39012604 238.40392951 -132.81640625 248.64453125 C-133.79447263 250.49208068 -134.77233594 252.33973764 -135.75 254.1875 C-136.22518066 255.08380127 -136.70036133 255.98010254 -137.18994141 256.90356445 C-140.17373391 262.58434754 -142.82867525 268.23695672 -145.0625 274.2578125 C-147.20233487 278.92198381 -151.41602027 281.5100024 -156.0625 283.4375 C-161.41983289 284.30158595 -164.18960939 283.70178393 -168.8125 280.875 C-174.8869572 276.42109506 -177.60648994 270.80375576 -179.0625 263.4375 C-179.37134288 259.91290794 -179.39562083 256.41162146 -179.375 252.875 C-179.37008545 251.8648584 -179.3651709 250.8547168 -179.36010742 249.81396484 C-179.00312528 226.28243402 -174.23104077 201.82417201 -167.0625 179.4375 C-167.866875 180.345 -168.67125 181.2525 -169.5 182.1875 C-170.17869141 182.95320313 -170.17869141 182.95320313 -170.87109375 183.734375 C-172.19517951 185.38030717 -172.19517951 185.38030717 -172.453125 187.47265625 C-173.0625 189.4375 -173.0625 189.4375 -174.98828125 190.88671875 C-175.77589844 191.29535156 -176.56351563 191.70398438 -177.375 192.125 C-178.54482422 192.74955078 -178.54482422 192.74955078 -179.73828125 193.38671875 C-185.47301137 195.97939506 -191.24361004 195.69222118 -197.4375 195.75 C-198.46617187 195.77900391 -199.49484375 195.80800781 -200.5546875 195.83789062 C-206.61812366 195.88867972 -210.31191395 195.59334498 -215.0625 191.4375 C-215.77535156 190.83550781 -216.48820312 190.23351562 -217.22265625 189.61328125 C-226.02374716 180.99291089 -231.09783879 170.79352878 -231.390625 158.34375 C-231.38014377 156.20820027 -231.35390943 154.07267394 -231.3125 151.9375 C-231.30734375 150.87402344 -231.3021875 149.81054688 -231.296875 148.71484375 C-231.23330845 142.23900148 -230.83476081 135.86702019 -230.0625 129.4375 C-240.61506426 147.44593923 -249.11856576 166.40780506 -257.5 185.5 C-267.41523995 208.00485173 -267.41523995 208.00485173 -276.25 213.375 C-283.36153244 215.35690248 -289.57718304 215.47701587 -296.375 212.375 C-300.84469665 209.8300531 -304.68103747 207.09729085 -307.0625 202.4375 C-307.99235815 197.89810157 -307.1385058 193.53128557 -306.20703125 189.05078125 C-305.35349782 184.88260338 -304.53299343 180.70956879 -303.73046875 176.53125 C-301.03900269 162.66738672 -298.2020449 148.95512892 -294.0625 135.4375 C-300.22615223 145.01807887 -306.27717686 154.6127309 -311.77172852 164.59472656 C-314.33974429 169.23156582 -317.08643981 173.71998554 -319.9375 178.1875 C-323.74544042 184.15954825 -327.20378744 190.26517568 -330.5625 196.5 C-333.98836155 202.84069976 -337.55714734 209.00606391 -341.5625 215 C-342.17641602 215.91954468 -342.17641602 215.91954468 -342.80273438 216.85766602 C-344.70304648 219.64248269 -346.65844054 222.08443574 -349.0625 224.4375 C-349.76960678 226.08741582 -350.44193989 227.75312256 -351.0625 229.4375 C-352.68344818 231.05844818 -354.45377885 230.64700959 -356.6875 230.6875 C-360.28110817 230.66719713 -362.08254701 230.42859022 -365.4375 228.9375 C-369.20715752 227.37764172 -371.014237 227.37293931 -375 227.5625 C-381.06362697 227.71409067 -384.53405567 226.42884977 -389.0625 222.4375 C-395.74272653 215.75727347 -397.32880972 209.59754572 -397.375 200.4375 C-397.30486226 192.01723041 -396.31609762 183.75377708 -395.0625 175.4375 C-396.67375182 178.12081053 -398.27516299 180.80987074 -399.875 183.5 C-400.55272461 184.62825195 -400.55272461 184.62825195 -401.24414062 185.77929688 C-403.88892647 190.23875331 -406.10062146 194.64050322 -408.0625 199.4375 C-410.78824145 205.10368172 -413.98663676 209.69938511 -418.2265625 214.328125 C-422.1271654 218.80966876 -425.53609113 223.78702373 -428.5 228.93359375 C-433.43674544 236.84472832 -441.26296482 245.23780988 -449.0625 250.4375 C-452.89353042 250.11824747 -454.82930553 249.59296298 -458.0625 247.4375 C-459.48175781 247.01017578 -459.48175781 247.01017578 -460.9296875 246.57421875 C-467.34818292 244.2453133 -473.08161599 238.56478401 -476.625 232.75 C-482.58886425 219.00718239 -478.86322926 201.78343306 -475.60498047 187.78808594 C-475.11571763 185.66809375 -474.6619133 183.5448585 -474.22265625 181.4140625 C-469.21956865 157.8158208 -460.80518168 135.32454612 -451.4599762 113.16435242 C-449.65064343 108.86974058 -447.90133384 104.55499898 -446.18359375 100.22265625 C-445.51638306 98.55940308 -445.51638306 98.55940308 -444.83569336 96.86254883 C-444.01276435 94.81035482 -443.19911021 92.75440634 -442.39672852 90.6940918 C-440.36551091 85.70296025 -438.82219818 82.36654503 -434.0625 79.4375 C-433.44375 79.025 -432.825 78.6125 -432.1875 78.1875 C-425.37144026 75.78183186 -420.3545311 78.32920159 -414.0703125 81.1484375 C-411.40805915 82.28940322 -408.84897615 83.11170785 -406.0625 83.875 C-402.86551837 84.92328564 -402.00500626 85.49786842 -399.5625 88.0625 C-397.40125842 92.92529356 -396.12543913 97.59641119 -397.84277344 102.80322266 C-399.02329795 105.25324317 -400.31321153 107.59087372 -401.6875 109.9375 C-402.12707031 110.72769531 -402.56664062 111.51789063 -403.01953125 112.33203125 C-404.3478497 114.71209744 -405.70167429 117.07589427 -407.0625 119.4375 C-409.95387058 124.46790529 -412.59105637 129.33470306 -414.5625 134.8125 C-415.9754297 138.71824139 -417.53162929 142.49412676 -419.28125 146.2578125 C-422.84971658 154.02517476 -425.92528151 161.98909941 -429.0625 169.9375 C-430.26765307 172.99085424 -431.47552807 176.04309563 -432.6875 179.09375 C-432.97616943 179.82207031 -433.26483887 180.55039062 -433.56225586 181.30078125 C-435.59254669 186.37969424 -437.80359613 191.34420224 -440.21484375 196.25585938 C-441.3039429 198.6688213 -441.3039429 198.6688213 -441.0625 202.4375 C-430.40742542 193.31468172 -421.09746373 183.15767922 -412.32421875 172.2265625 C-410.31561889 169.74963625 -408.26031033 167.32146709 -406.17993164 164.90478516 C-401.31890242 159.24443297 -396.63640465 153.45732781 -392.0625 147.5625 C-391.51045898 146.86108887 -390.95841797 146.15967773 -390.38964844 145.43701172 C-385.22338094 138.70806826 -382.67795517 131.4571241 -380 123.5 C-377.27896011 115.55228976 -374.21022279 107.79835822 -370.9375 100.0625 C-364.19527785 86.29836366 -364.19527785 86.29836366 -361.0703125 71.69921875 C-361.0625 69.4375 -361.0625 69.4375 -359.0625 67.4375 C-349.66323878 66.27951102 -340.29275105 68.14726782 -331.11523438 70.02294922 C-329.17008993 70.41577216 -327.2179332 70.77339334 -325.265625 71.12890625 C-314.71670223 73.2172111 -314.71670223 73.2172111 -311.0625 78.4375 C-309.41396621 83.38310137 -309.39540791 87.55168676 -311.6875 92.25 C-313.32435076 95.20334271 -315.07564024 98.06730615 -316.859375 100.93359375 C-320.29115982 106.65027157 -323.01961832 112.58405301 -325.6875 118.6875 C-326.19458496 119.83831055 -326.70166992 120.98912109 -327.22412109 122.17480469 C-331.20103601 131.28271005 -334.98774237 140.46386787 -338.6875 149.6875 C-338.94525208 150.32820435 -339.20300415 150.96890869 -339.46856689 151.62902832 C-341.96402785 157.84895324 -344.29390248 163.97465256 -346.0625 170.4375 C-340.86158836 164.0440541 -336.3681205 157.39611682 -332.0625 150.375 C-330.74225826 148.24344575 -329.42194367 146.11193663 -328.1015625 143.98046875 C-327.43286133 142.89685059 -326.76416016 141.81323242 -326.07519531 140.69677734 C-295.74442314 91.58035224 -295.74442314 91.58035224 -277.7265625 69.484375 C-276.6992729 68.22076057 -275.68985337 66.94207384 -274.7109375 65.640625 C-270.48173996 60.12902562 -264.81586256 56.99596828 -258.0625 55.4375 C-249.9185788 54.79137071 -238.49998521 54.34191032 -231.62109375 59.140625 C-230.0625 61.4375 -230.0625 61.4375 -230.34423828 64.25537109 C-231.01276202 67.21714485 -231.8568081 69.83916099 -232.99609375 72.6484375 C-233.59127808 74.12703247 -233.59127808 74.12703247 -234.19848633 75.63549805 C-234.8427356 77.20811401 -234.8427356 77.20811401 -235.5 78.8125 C-235.94303467 79.90796143 -236.38606934 81.00342285 -236.8425293 82.13208008 C-240.3714274 90.82889351 -244.00314219 99.48216669 -247.63989258 108.13427734 C-250.71216689 115.48576884 -253.53477677 122.88093793 -256.0625 130.4375 C-255.7325 130.7675 -255.4025 131.0975 -255.0625 131.4375 C-254.70124023 130.9206665 -254.33998047 130.40383301 -253.96777344 129.87133789 C-246.66928015 119.43191059 -239.35872331 109.00139871 -232.00390625 98.6015625 C-229.98497394 95.74630216 -227.97274075 92.88646832 -225.96484375 90.0234375 C-225.19611938 88.92938599 -225.19611938 88.92938599 -224.41186523 87.81323242 C-223.39780399 86.36938318 -222.38555638 84.92425824 -221.37524414 83.4777832 C-219.11066696 80.25423268 -216.81882733 77.08533427 -214.34375 74.01953125 C-208.63117325 67.12913991 -208.63117325 67.12913991 -207.453125 58.5703125 C-206.79800713 54.9933689 -204.93070949 52.53950942 -202.0625 50.4375 C-199.02656224 49.69283602 -196.16766197 49.82104992 -193.0625 50 C-191.87140625 50.02803711 -191.87140625 50.02803711 -190.65625 50.05664062 C-186.66855865 50.17959444 -182.97061741 50.62914347 -179.0625 51.4375 C-176.60539002 51.58459971 -174.14677914 51.70774369 -171.6875 51.8125 C-165.12375929 52.18323862 -160.1584251 52.72856554 -155.0625 57.1875 C-153.5647692 60.55739431 -153.95720166 63.04088093 -155.0625 66.4375 C-156.385648 69.2617366 -157.82697456 72.01215788 -159.26953125 74.77734375 C-161.79546413 79.78044632 -163.76163029 85.01030887 -165.80761719 90.22265625 C-168.96217796 98.24485053 -172.28188235 106.19294116 -175.64941406 114.12792969 C-182.02972599 129.28566188 -185.39494041 144.00172257 -186.0625 160.4375 C-180.86666418 157.73618237 -177.17825333 154.93403429 -173.3125 150.5625 C-172.80082275 149.99370117 -172.28914551 149.42490234 -171.76196289 148.83886719 C-156.1184276 131.24259877 -144.62738116 113.28476251 -136.6875 91.0625 C-135.96609708 89.09028544 -135.24276073 87.11877712 -134.51757812 85.14794922 C-133.05693462 81.17113141 -131.60702109 77.19065135 -130.16503906 73.20703125 C-128.19421007 67.7768674 -126.16605296 62.36987472 -124.1171875 56.96875 C-123.21633135 54.585322 -122.31599201 52.20169928 -121.41571045 49.8180542 C-120.85252929 48.32922382 -120.28782211 46.84096968 -119.72149658 45.35333252 C-118.94280452 43.30319192 -118.17339257 41.24979765 -117.40625 39.1953125 C-116.97505859 38.0520752 -116.54386719 36.90883789 -116.09960938 35.73095703 C-115.01932416 32.30039029 -114.558795 28.99203069 -114.0625 25.4375 C-112.5390625 23.2578125 -112.5390625 23.2578125 -110.6875 21.5625 C-110.08164062 20.98757813 -109.47578125 20.41265625 -108.8515625 19.8203125 C-103.68795293 15.82922563 -96.23901874 17.31106429 -90.0625 17.4375 C-89.2375 17.45006836 -88.4125 17.46263672 -87.5625 17.47558594 C-84.91558142 17.52383706 -82.27096161 17.60212279 -79.625 17.6875 C-78.36538452 17.70852783 -78.36538452 17.70852783 -77.08032227 17.72998047 C-71.31345901 17.96086176 -67.82906834 19.14999719 -63.0625 22.4375 C-61.01127724 24.91606084 -61.04919705 26.12779075 -61.1875 29.34765625 C-62.07347952 35.02071217 -65.01056876 39.98781356 -67.5625 45.0625 C-72.05121083 54.16677069 -76.27994226 63.31390557 -80.11914062 72.71142578 C-82.04301643 77.35020787 -84.24272937 81.26047238 -87.0625 85.4375 C-88.44425225 88.20277689 -89.66051374 91.03295375 -90.875 93.875 C-91.50471909 95.33280635 -92.13630741 96.78980633 -92.76953125 98.24609375 C-93.12007568 99.05296631 -93.47062012 99.85983887 -93.83178711 100.69116211 C-95.26734544 103.89461296 -96.78971014 107.05209097 -98.3046875 110.21875 C-102.82026732 119.78100132 -106.58704704 129.63242877 -110.375 139.5 C-110.92835526 140.93394104 -110.92835526 140.93394104 -111.4928894 142.39685059 C-117.86069517 158.91755162 -123.7381604 175.55202376 -129.0625 192.4375 C-128.6907666 191.73890869 -128.3190332 191.04031738 -127.93603516 190.32055664 C-126.19026944 187.04502674 -124.44041341 183.77170863 -122.6875 180.5 C-122.37014893 179.90748444 -122.05279785 179.31496887 -121.72583008 178.70449829 C-117.81856872 171.42059589 -113.82675719 164.20779039 -109.5625 157.125 C-102.45284395 145.23711958 -97.52656483 133.22067266 -94.140625 119.77734375 C-91.8853895 110.83958666 -88.92067209 102.78401228 -85.0625 94.4375 C-83.4125 94.7675 -81.7625 95.0975 -80.0625 95.4375 C-79.78647949 94.73222168 -79.51045898 94.02694336 -79.22607422 93.30029297 C-48.81213816 18.47154471 -48.81213816 18.47154471 -22.7421875 3.48828125 C-15.32292902 0.57898019 -7.90696286 0.04890905 0 0 Z " fill="#FE914E" transform="translate(1022.0625,240.5625)"/>
<path d="M0 0 C2.43002831 0.87481019 4.85196158 1.77240713 7.265625 2.69140625 C10.05390466 3.75178294 12.82471401 4.6824359 15.67578125 5.55078125 C19.47569675 6.80566986 22.48185287 8.53712691 25.67578125 10.98828125 C26.85140625 11.76171875 26.85140625 11.76171875 28.05078125 12.55078125 C30.9506339 16.90056023 30.50687916 20.9455385 29.67578125 25.98828125 C26.51714293 37.25200636 21.49193693 48.04634599 16.70068359 58.69384766 C15.56916685 61.22695732 14.45896572 63.76875745 13.3515625 66.3125 C9.24825425 75.72338245 5.09937892 85.10823618 0.796875 94.4296875 C-13.19786842 124.75320594 -26.0655013 155.4539703 -36.41259766 187.24243164 C-37.90914026 191.82593251 -39.59279992 196.28133811 -41.4453125 200.73046875 C-43.00388865 204.7342777 -44.14943148 208.85924214 -45.32421875 212.98828125 C-44.92404541 212.35011475 -44.52387207 211.71194824 -44.11157227 211.05444336 C-39.31145573 203.45011631 -34.32220864 195.98305784 -29.26171875 188.55078125 C-28.84825195 187.94288757 -28.43478516 187.3349939 -28.00878906 186.7086792 C2.56669944 141.76935028 2.56669944 141.76935028 19.44921875 124.046875 C25.69516486 117.46207257 29.16833884 111.92934249 31.80078125 103.30078125 C34.64028908 98.28431742 38.36472035 96.06747405 43.67578125 93.98828125 C54.27747068 91.66526401 68.1299915 95.92848822 77.2265625 101.5703125 C81.34395539 105.92354651 81.56140032 111.90755462 81.44213867 117.64599609 C80.10778417 138.06353526 70.93649047 157.8303543 63.5390625 176.65209961 C59.34784713 187.3460655 55.59442455 198.08080793 52.26249695 209.07357788 C51.47614513 211.63977899 50.63955493 214.18881109 49.80078125 216.73828125 C48.63579478 220.62156947 48.41233112 223.94871263 48.67578125 227.98828125 C59.60327986 218.99617068 67.75334217 208.54060853 75.47021484 196.78320312 C76.46512685 195.30191656 77.5253462 193.86471868 78.6015625 192.44140625 C82.88294414 186.4495967 83.50230827 180.57953087 84.35351562 173.45410156 C85.36174745 165.7157799 87.36997622 158.43477867 89.67578125 150.98828125 C90.02044434 149.86035156 90.36510742 148.73242188 90.72021484 147.5703125 C92.25229234 142.7440847 93.57377883 139.00450075 96.67578125 134.98828125 C97.52425575 133.31910112 98.32751177 131.62646232 99.09375 129.91796875 C108.08199915 110.26795335 108.08199915 110.26795335 115.67578125 101.98828125 C116.78786651 100.47322863 117.89198726 98.95229936 118.98828125 97.42578125 C133.22766686 79.06702895 158.48349514 67.31418186 180.86328125 63.73828125 C191.61192338 62.41869349 202.41320624 61.44341071 211.55859375 68.42578125 C222.58802701 79.9540331 220.8737597 98.2672051 220.91601562 113.00219727 C220.92579325 115.05329911 220.95701125 117.10342459 220.98828125 119.15429688 C221.04788832 126.82402717 220.36395432 133.81129192 218.35986328 141.23486328 C217.72037095 143.80880851 217.42724815 146.15850528 217.30078125 148.80078125 C216.82927789 154.83209504 214.80197153 160.41449511 212.921875 166.12109375 C211.92375803 169.15578002 211.10418261 172.19190103 210.36328125 175.30078125 C204.78397971 195.80931272 193.78768792 215.05970793 178.67578125 229.98828125 C177.88300781 230.82617188 177.09023438 231.6640625 176.2734375 232.52734375 C169.47638583 238.96665586 160.55128523 243.30949307 152.015625 246.98046875 C149.6894024 247.94896854 149.6894024 247.94896854 147.5703125 249.08203125 C139.64103776 252.87500391 124.97921171 252.31820852 116.67578125 249.86328125 C103.23544242 244.28859526 94.33674867 230.29314118 88.52734375 217.44921875 C85.54550501 209.84889293 84.10275383 201.99878643 82.67578125 193.98828125 C79.48806782 201.87917842 77.30819251 209.42094138 75.86328125 217.80078125 C74.19811892 227.04748479 71.14892419 234.91833349 66.67089844 243.15625 C65.76618393 244.82184806 64.90955124 246.51333808 64.05859375 248.20703125 C59.75977014 255.99196554 53.92176303 260.67063041 45.67578125 263.98828125 C39.62609825 265.50871965 33.06144141 266.1714696 27.09375 264.0859375 C25.07043728 262.8750448 23.41962813 261.56971102 21.67578125 259.98828125 C20.12890625 258.87453125 20.12890625 258.87453125 18.55078125 257.73828125 C8.58847403 248.20911783 5.01453212 235.97545984 4.4375 222.51953125 C4.07550691 205.8041653 6.33390256 189.4966575 8.67578125 172.98828125 C3.87298348 178.93684741 -0.41337939 185.0221606 -4.38671875 191.55078125 C-4.93908203 192.45062744 -5.49144531 193.35047363 -6.06054688 194.27758789 C-11.45586625 203.11325784 -16.66440009 212.05669968 -21.8515625 221.015625 C-24.0894646 224.87745829 -26.35003028 228.72387702 -28.640625 232.5546875 C-29.72278962 234.36580573 -30.80482197 236.177003 -31.88671875 237.98828125 C-32.68094238 239.31702271 -32.68094238 239.31702271 -33.49121094 240.67260742 C-36.35286757 245.50524968 -39.09201206 250.37883702 -41.7109375 255.34765625 C-42.27417725 256.41371094 -42.83741699 257.47976563 -43.41772461 258.578125 C-44.48286962 260.61014226 -45.53555105 262.64876794 -46.57250977 264.6953125 C-50.09495815 271.42656263 -54.17709795 278.3512251 -60.32421875 282.98828125 C-63.65756214 283.23799076 -66.37956752 282.89876198 -69.66015625 282.30078125 C-72.51792916 281.67742237 -72.51792916 281.67742237 -75.19921875 283.86328125 C-75.90046875 284.56453125 -76.60171875 285.26578125 -77.32421875 285.98828125 C-82.53152513 287.64515146 -87.26869659 286.77044374 -92.32421875 284.98828125 C-99.36862618 280.92420004 -101.69487729 273.68949649 -103.86181641 266.10717773 C-109.56456672 239.97509222 -99.59760432 207.60029882 -91.28662109 182.87255859 C-90.33296995 180.0145082 -89.40952322 177.14756646 -88.49072266 174.27815247 C-78.43402162 142.93037818 -67.0290918 111.9373076 -53.32421875 81.98828125 C-52.84307617 80.9327002 -52.36193359 79.87711914 -51.86621094 78.78955078 C-46.9204325 67.9677388 -41.91076476 57.17932735 -36.6640625 46.5 C-35.74819303 44.63288387 -34.83257634 42.76564451 -33.91732788 40.89822388 C-33.31626615 39.67205796 -32.71456683 38.44620437 -32.11221313 37.22067261 C-27.80963715 28.44095805 -23.99271071 19.60869911 -20.89526367 10.33032227 C-17.37071358 0.17390196 -10.25716263 -3.12174515 0 0 Z " fill="#5270FE" transform="translate(802.32421875,533.01171875)"/>
<path d="M0 0 C5.803803 6.55268081 6.50646014 16.99954556 6.375 25.375 C6.36557373 26.32616699 6.35614746 27.27733398 6.34643555 28.25732422 C6.14362925 38.00657042 4.90331233 47.44687318 3 57 C2.84966309 57.76892578 2.69932617 58.53785156 2.54443359 59.33007812 C-5.32317988 97.99004379 -24.56806948 153.2539119 -58.03125 176.7578125 C-68.03725573 183.07112564 -78.13806166 185.42899684 -90 184 C-93.59028341 182.55462803 -96.16388907 180.6050632 -99 178 C-99.62261719 177.47019531 -100.24523438 176.94039062 -100.88671875 176.39453125 C-105.72843502 171.97292051 -108.86282214 166.71127252 -112 161 C-127.06830374 185.61619206 -139.43589968 211.71076094 -151.73046875 237.7890625 C-155.63732103 246.05211978 -159.59274735 254.27641798 -163.80859375 262.38671875 C-164.30483246 263.34140045 -164.30483246 263.34140045 -164.81109619 264.31536865 C-166.43059205 267.42493043 -168.05866515 270.52965774 -169.69873047 273.62841797 C-173.37822034 280.62318452 -173.37822034 280.62318452 -176.60473633 287.83227539 C-176.99196114 288.77839943 -176.99196114 288.77839943 -177.38700867 289.74363708 C-178.08873096 291.49174781 -178.76804023 293.24880792 -179.44580078 295.00634766 C-182.00130308 299.92868024 -186.03398283 302.70980825 -191 305 C-195.97545815 306.41399799 -199.51289673 305.4046907 -204 303 C-209.65765298 299.10843833 -213.90413579 294.63098282 -216 288 C-222.32750711 252.27067653 -210.43293425 210.85001183 -199.37890625 177.25 C-198.29249208 173.94694449 -197.30557958 170.62565878 -196.36669922 167.27709961 C-190.15980045 145.27405364 -182.02347336 123.80328927 -173.9375 102.4375 C-173.58425659 101.50405762 -173.23101318 100.57061523 -172.86706543 99.60888672 C-169.02743439 89.47702175 -165.14811495 79.36115232 -161.21669006 69.26454163 C-159.54385858 64.96696375 -157.87800132 60.66669354 -156.21194458 56.3664856 C-155.0245646 53.31316726 -153.82495278 50.26485099 -152.62475586 47.21655273 C-151.89510839 45.337295 -151.16599538 43.45782964 -150.4375 41.578125 C-150.10291275 40.7394136 -149.7683255 39.90070221 -149.42359924 39.03657532 C-147.59432325 34.27455928 -146.55498624 29.9601634 -146.22531128 24.86051941 C-145.91172148 22.27103557 -144.93323584 20.90222254 -143.125 19.0625 C-142.61195312 18.51722656 -142.09890625 17.97195313 -141.5703125 17.41015625 C-137.85942813 14.07774516 -135.6148918 13.75182937 -130.75 13.76953125 C-129.50089844 13.77146484 -128.25179688 13.77339844 -126.96484375 13.77539062 C-125.65644531 13.78763672 -124.34804687 13.79988281 -123 13.8125 C-121.72253906 13.81314453 -120.44507813 13.81378906 -119.12890625 13.81445312 C-95.5298345 13.92314895 -95.5298345 13.92314895 -89.125 19.6875 C-87.47940545 23.07011103 -87.58494344 26.33548747 -88 30 C-89.00175791 32.52592252 -89.99679939 34.65875328 -91.3125 37 C-92.05248746 38.39355302 -92.78787336 39.78955572 -93.51953125 41.1875 C-94.11822021 42.32832031 -94.11822021 42.32832031 -94.72900391 43.4921875 C-97.14265897 48.25458951 -99.30287725 53.13496966 -101.5 58 C-104.84769786 65.36996169 -108.26831881 72.67798435 -111.93041992 79.89648438 C-114.96738386 85.89443001 -117.89987009 91.94079208 -120.8125 98 C-121.28107422 98.9681665 -121.74964844 99.93633301 -122.23242188 100.93383789 C-124.44570872 105.5521924 -126.4845729 110.13996389 -128.21508789 114.95849609 C-129.09605833 117.2498413 -130.1186534 119.44281436 -131.1640625 121.6640625 C-134.90004524 129.7815119 -138.04305308 138.1406505 -141.25585938 146.47509766 C-142.35994915 149.33600044 -143.47259622 152.19346826 -144.5859375 155.05078125 C-148.52697545 165.21997862 -152.25821264 175.42150976 -155.59848022 185.80526733 C-157.26532305 190.95745104 -159.1457196 195.96286444 -161.23788452 200.95858765 C-162.11658314 202.94910895 -162.11658314 202.94910895 -162 205 C-161.6690332 204.38294189 -161.33806641 203.76588379 -160.99707031 203.13012695 C-155.02419673 192.00960648 -149.00973293 180.92644557 -142.6875 170 C-131.96341303 151.70207855 -131.96341303 151.70207855 -125.4519043 131.69970703 C-123.01015566 119.74412862 -119.13912762 109.04338591 -114 98 C-112.02 98.33 -110.04 98.66 -108 99 C-107.86625473 98.4113063 -107.73250946 97.82261261 -107.5947113 97.21607971 C-106.66858819 93.76505627 -105.0608223 90.6205592 -103.53515625 87.40234375 C-103.18635406 86.66012573 -102.83755188 85.91790771 -102.47817993 85.15319824 C-101.34438042 82.74568287 -100.20425953 80.34124977 -99.0625 77.9375 C-98.67462311 77.11943878 -98.28674622 76.30137756 -97.88711548 75.45852661 C-76.28863032 29.95404255 -76.28863032 29.95404255 -60 11 C-59.5153125 10.360625 -59.030625 9.72125 -58.53125 9.0625 C-54.55417546 3.93649282 -49.68154282 1.02828108 -44 -2 C-43.37569092 -2.34361572 -42.75138184 -2.68723145 -42.1081543 -3.04125977 C-31.29656483 -7.95812275 -9.14461554 -7.67380325 0 0 Z " fill="#5270FE" transform="translate(1215,564)"/>
<path d="M0 0 C0.75925781 0.309375 1.51851562 0.61875 2.30078125 0.9375 C4 2 4 2 5.5625 5.625 C7.88048719 10.76367041 11.89401486 13.0207512 16.42578125 16.13671875 C19.62852317 18.45494014 21.43528672 20.34900235 23 24 C23.61896112 28.14114467 23.47363734 31.67381545 22.0625 35.625 C16.75005504 41.74236087 10.00398663 45.6900446 2.99438477 49.60571289 C-12.06083273 58.03860914 -26.50323975 67.23577255 -40 78 C-40.82967285 78.65307129 -41.6593457 79.30614258 -42.51416016 79.97900391 C-49.47809233 85.54891381 -55.84910123 91.54614006 -62.125 97.875 C-63.04925781 98.79152344 -63.97351563 99.70804688 -64.92578125 100.65234375 C-70.32260011 106.06438636 -75.30004429 111.65311358 -80.07470703 117.62011719 C-82.21934621 120.27113706 -84.5048667 122.73723764 -86.875 125.1875 C-93.05141351 131.91143384 -98.0348532 139.35804187 -103 147 C-103.38945801 147.58555664 -103.77891602 148.17111328 -104.18017578 148.77441406 C-108.8691219 155.39565962 -108.8691219 155.39565962 -110.1875 163.125 C-108.78160435 166.52874737 -108.2123023 166.56158659 -105 168 C-92.93629932 175.06299502 -81.23487943 182.69943266 -69.80371094 190.73876953 C-68.03718134 191.97400124 -66.25963948 193.19115 -64.4765625 194.40234375 C-48.38395959 205.34966121 -35.97788274 215.03785792 -31.5 234.78125 C-30.19840827 243.16024675 -30.05185266 251.96515284 -33 260 C-33.34160156 260.94617188 -33.68320312 261.89234375 -34.03515625 262.8671875 C-36.56214467 269.38372998 -39.43047452 274.72427513 -44 280 C-44.6703125 280.77859375 -45.340625 281.5571875 -46.03125 282.359375 C-48.31349254 284.94698802 -50.64215869 287.48113538 -53 290 C-53.76183594 290.81597656 -54.52367187 291.63195312 -55.30859375 292.47265625 C-61.9940208 299.39959298 -69.31462101 305.24331115 -77 311 C-77.55139648 311.41749512 -78.10279297 311.83499023 -78.67089844 312.26513672 C-105.92389735 332.79855282 -138.33065609 350.79294354 -173 352 C-174.19230225 352.04302246 -174.19230225 352.04302246 -175.40869141 352.08691406 C-177.83503898 352.16317484 -180.26027771 352.21175647 -182.6875 352.25 C-183.44144043 352.27143066 -184.19538086 352.29286133 -184.97216797 352.31494141 C-189.53943262 352.34275917 -192.41706735 351.88027272 -196 349 C-202.44856365 341.93113364 -203.92136928 334.87379171 -204.61328125 325.69921875 C-204.98258343 322.1666009 -205.80827342 319.32630512 -207 316 C-207.31926658 312.00916781 -207.11105893 309.43047076 -205 306 C-205.99 306 -206.98 306 -208 306 C-207.1415105 301.50303532 -204.54132095 299.06520774 -201.4375 295.875 C-196.97942962 291.17906015 -192.80071581 286.38942873 -188.80859375 281.28515625 C-184.83580087 276.26553673 -180.62020538 271.43539716 -176 267 C-175.375 268.75 -175.375 268.75 -175 271 C-175.43505859 271.85078125 -175.43505859 271.85078125 -175.87890625 272.71875 C-178.33890954 277.72447099 -178.94570696 283.55789777 -180 289 C-180.17144531 289.83144531 -180.34289062 290.66289063 -180.51953125 291.51953125 C-181.12508599 294.9998074 -181.10898996 296.7725427 -179.5625 300 C-179.046875 300.66 -178.53125 301.32 -178 302 C-170.60394634 301.59266838 -164.04953585 300.44404159 -157.0625 298 C-156.16354004 297.69094727 -155.26458008 297.38189453 -154.33837891 297.06347656 C-130.73256612 288.74268526 -109.2793374 276.97402368 -90 261 C-89.4210498 260.52030762 -88.84209961 260.04061523 -88.24560547 259.54638672 C-80.88273061 253.34732812 -73.81866208 246.41642325 -69 238 C-70.19239589 234.42281232 -70.99547469 234.09222095 -74.12890625 232.1796875 C-74.9904834 231.64915771 -75.85206055 231.11862793 -76.73974609 230.57202148 C-77.67125488 230.01200439 -78.60276367 229.4519873 -79.5625 228.875 C-80.51979004 228.29242432 -81.47708008 227.70984863 -82.46337891 227.10961914 C-93.36782139 220.50812394 -104.40341687 214.3158062 -115.75048828 208.5090332 C-146.98085634 192.48049875 -146.98085634 192.48049875 -152.1875 176.3125 C-158.09460186 146.42951414 -146.35775019 115.55838671 -130.13574219 90.96166992 C-118.10476168 73.17845459 -102.37694684 56.85310229 -86 43 C-83.72670682 41.06537518 -81.45658907 39.12705331 -79.1875 37.1875 C-78.58365479 36.67171387 -77.97980957 36.15592773 -77.35766602 35.62451172 C-72.63639601 31.57807026 -68.02440204 27.42930973 -63.44140625 23.2265625 C-61.33845167 21.30866793 -59.21330844 19.42623955 -57.0625 17.5625 C-53.59929554 14.55008455 -50.19931982 11.47265698 -46.8125 8.375 C-46.31306885 7.91939697 -45.8136377 7.46379395 -45.29907227 6.99438477 C-42.91758462 4.8094719 -40.60563296 2.59458138 -38.3515625 0.27734375 C-27.88818656 -9.85579275 -11.713477 -5.09953484 0 0 Z " fill="#5270FE" transform="translate(720,538)"/>
<path d="M0 0 C0.87833496 0.20125488 1.75666992 0.40250977 2.66162109 0.60986328 C3.57379395 0.81981934 4.4859668 1.02977539 5.42578125 1.24609375 C7.22196292 1.57867182 9.02020209 1.90032638 10.8203125 2.2109375 C11.71298828 2.37142578 12.60566406 2.53191406 13.52539062 2.69726562 C15.35224315 3.02475755 17.18042074 3.34493265 19.00976562 3.65820312 C24.96741563 4.74574505 29.22158321 5.97706635 33.55078125 10.43359375 C38.50546207 17.86561498 38.84870647 24.4886975 38.67578125 33.18359375 C38.670625 34.21677734 38.66546875 35.24996094 38.66015625 36.31445312 C38.5740143 44.81558671 38.02411122 52.79618747 35.67578125 60.99609375 C34.44527895 65.3335307 33.31338008 69.65717887 32.40234375 74.07421875 C22.70328397 120.37869208 -10.1796284 167.19656802 -47.21875 196.37890625 C-49.13255118 197.89598248 -50.910136 199.46435411 -52.69921875 201.12109375 C-56.40589346 203.86080984 -60.16357803 205.04051862 -64.57421875 206.24609375 C-65.0546088 208.62085209 -65.53356349 210.9958853 -66.01171875 213.37109375 C-66.14642578 214.03625 -66.28113281 214.70140625 -66.41992188 215.38671875 C-68.19243123 224.20603359 -68.75714534 232.37976402 -68.76171875 241.37109375 C-68.78008789 243.28341797 -68.78008789 243.28341797 -68.79882812 245.234375 C-68.80076172 246.45769531 -68.80269531 247.68101562 -68.8046875 248.94140625 C-68.80879639 250.05531738 -68.81290527 251.16922852 -68.81713867 252.31689453 C-68.57985372 255.17814565 -68.06033889 256.8245683 -66.57421875 259.24609375 C-51.62433782 256.87309678 -41.30065748 245.7904089 -31.88671875 234.62109375 C-28.1867959 230.2546721 -24.42953986 225.98301337 -20.51171875 221.80859375 C-12.03262927 212.55123036 -4.68676354 202.20740825 1.42578125 191.24609375 C2.61199231 194.95701078 1.97190392 196.62669496 0.30859375 200.140625 C-0.70455495 202.55693981 -1.3181378 204.95363546 -1.94921875 207.49609375 C-3.52954043 213.44837135 -5.90460729 218.71029612 -8.57421875 224.24609375 C-9.34264698 225.89252938 -10.10942522 227.53973561 -10.875 229.1875 C-20.70466796 250.24782427 -30.25332767 268.64760578 -51.69921875 279.68359375 C-52.68438477 280.19720459 -52.68438477 280.19720459 -53.68945312 280.72119141 C-58.3785289 283.02005648 -62.36585533 283.8389425 -67.57421875 284.24609375 C-68.52167969 284.33632813 -69.46914062 284.4265625 -70.4453125 284.51953125 C-80.15495573 284.90377893 -85.55091205 281.16545087 -92.69921875 274.93359375 C-99.37660329 268.67095359 -104.9912061 262.75362617 -108.57421875 254.24609375 C-109.07586548 253.11252441 -109.07586548 253.11252441 -109.58764648 251.95605469 C-112.99611314 242.59352565 -111.81586682 231.18270366 -111.82421875 221.30859375 C-111.82523087 220.22334915 -111.82523087 220.22334915 -111.82626343 219.11618042 C-111.80005205 201.32796444 -109.57954231 184.78790974 -104.34716797 167.78710938 C-103.48835193 164.96381268 -102.67382756 162.12937072 -101.859375 159.29296875 C-88.94507033 115.00858247 -67.92187421 74.47564345 -40.73046875 37.359375 C-39.18972956 35.13479324 -37.83982578 33.00976691 -36.53125 30.66015625 C-33.71563326 25.74828194 -30.18473493 21.5882865 -26.57421875 17.24609375 C-26.01734375 16.54097656 -25.46046875 15.83585937 -24.88671875 15.109375 C-19.37191645 8.36169622 -9.40279973 -2.29442611 0 0 Z " fill="#FE914E" transform="translate(1158.57421875,107.75390625)"/>
<path d="M0 0 C11.02943326 11.52825185 9.31516595 29.84142385 9.35742188 44.57641602 C9.3671995 46.62751786 9.3984175 48.67764334 9.4296875 50.72851562 C9.48929457 58.39824592 8.80536057 65.38551067 6.80126953 72.80908203 C6.1617772 75.38302726 5.8686544 77.73272403 5.7421875 80.375 C5.27068414 86.40631379 3.24337778 91.98871386 1.36328125 97.6953125 C0.36516428 100.72999877 -0.45441114 103.76611978 -1.1953125 106.875 C-6.77461404 127.38353147 -17.77090583 146.63392668 -32.8828125 161.5625 C-34.07197266 162.81933594 -34.07197266 162.81933594 -35.28515625 164.1015625 C-42.08220792 170.54087461 -51.00730852 174.88371182 -59.54296875 178.5546875 C-61.86919135 179.52318729 -61.86919135 179.52318729 -63.98828125 180.65625 C-71.91755599 184.44922266 -86.57938204 183.89242727 -94.8828125 181.4375 C-108.41364258 175.82528071 -116.92235964 161.92208522 -123.03125 149.1640625 C-125.44940457 143.25503819 -126.64293495 137.20616835 -127.6953125 130.9375 C-127.83155029 130.14996338 -127.96778809 129.36242676 -128.1081543 128.55102539 C-128.95461662 122.99774589 -128.66398012 118.10086894 -127.8828125 112.5625 C-127.79902344 111.41910156 -127.71523438 110.27570313 -127.62890625 109.09765625 C-126.81886442 99.98212219 -124.62410429 91.5606462 -121.9453125 82.8125 C-121.59718506 81.66918213 -121.24905762 80.52586426 -120.89038086 79.34790039 C-119.34262108 74.45779736 -118.03206939 70.62764815 -114.8828125 66.5625 C-114.034338 64.89331987 -113.23108198 63.20068107 -112.46484375 61.4921875 C-103.4765946 41.8421721 -103.4765946 41.8421721 -95.8828125 33.5625 C-94.77072724 32.04744738 -93.66660649 30.52651811 -92.5703125 29 C-78.33092689 10.6412477 -53.07509861 -1.11159939 -30.6953125 -4.6875 C-19.94667037 -6.00708776 -9.14538751 -6.98237054 0 0 Z " fill="#5270FE" transform="translate(1013.8828125,601.4375)"/>
<path d="M0 0 C1.1964917 0.11722412 2.3929834 0.23444824 3.62573242 0.35522461 C19.21749627 2.01028702 31.29641367 5.11488472 43.9375 14.625 C44.65292969 15.1303125 45.36835937 15.635625 46.10546875 16.15625 C49.53631131 18.95959879 50.34134853 21.5959925 50.8125 25.8125 C50.88082473 27.74924317 50.92201755 29.68711387 50.9375 31.625 C50.98648437 32.56214844 51.03546875 33.49929687 51.0859375 34.46484375 C51.31945829 40.86870234 50.09644349 45.64210212 47.9375 51.625 C47.68742187 52.35090332 47.43734375 53.07680664 47.1796875 53.82470703 C43.42814076 64.62750079 39.02942334 73.61736928 31.9375 82.625 C31.35097656 83.41648437 30.76445313 84.20796875 30.16015625 85.0234375 C25.21245401 91.28664646 18.72722486 94.93294753 10.9375 96.625 C0.97156812 97.56015693 -8.93293281 98.20038523 -17.0625 91.625 C-18.0525 90.965 -19.0425 90.305 -20.0625 89.625 C-20.69286226 91.28964597 -21.31647593 92.95684776 -21.9375 94.625 C-22.28554687 95.553125 -22.63359375 96.48125 -22.9921875 97.4375 C-25.23125189 104.10566257 -26.38949751 110.07972801 -26.3125 117.125 C-26.32023437 117.83269531 -26.32796875 118.54039062 -26.3359375 119.26953125 C-26.31396388 125.27931718 -25.96509787 131.45060244 -21.875 136.125 C-18.05973801 138.15980639 -16.38145979 138.31054917 -12.0625 137.625 C-3.62075247 134.35799601 3.14487618 129.49943484 9.9375 123.625 C11.0407654 122.69294255 12.14498929 121.76201886 13.25 120.83203125 C16.25751434 118.29140842 19.23745507 115.72092775 22.20458984 113.13330078 C23.31839765 112.16385803 24.43564254 111.1983425 25.55712891 110.23779297 C36.40667719 100.92699455 44.74146737 90.15593851 52.6953125 78.3203125 C53.10523438 77.76085937 53.51515625 77.20140625 53.9375 76.625 C54.2675 76.625 54.5975 76.625 54.9375 76.625 C55.24100921 83.29560452 54.45832331 88.23621781 52.0625 94.4375 C51.79308594 95.17419922 51.52367187 95.91089844 51.24609375 96.66992188 C50.21243246 99.46080736 49.17984704 102.16112611 47.80078125 104.80078125 C46.6860767 107.15628815 46.42572661 109.43156673 46 112 C43.96278547 120.4797762 38.54794428 126.21361912 32.9375 132.625 C32.16664062 133.53507813 31.39578125 134.44515625 30.6015625 135.3828125 C18.11033499 149.76801674 3.37944919 162.86103953 -16.0625 165.625 C-19.74721272 165.83829741 -23.3780691 165.83346122 -27.0625 165.625 C-27.73788818 165.5943042 -28.41327637 165.5636084 -29.10913086 165.53198242 C-35.03165739 165.10049776 -39.45928055 163.42807256 -44.625 160.5625 C-45.36733887 160.15475342 -46.10967773 159.74700684 -46.87451172 159.3269043 C-58.03494268 152.99642842 -62.94883873 145.19293104 -68.0625 133.625 C-68.43632813 132.80386719 -68.81015625 131.98273438 -69.1953125 131.13671875 C-77.75645061 106.34026918 -68.54452682 75.65832129 -57.9609375 53.00390625 C-52.86128201 42.65130136 -46.24502836 33.61547618 -39.0625 24.625 C-38.23422481 23.57043045 -37.40608959 22.51575093 -36.578125 21.4609375 C-32.11257072 15.87129542 -27.54809696 10.24883933 -22.0625 5.625 C-21.47025635 5.10454102 -20.8780127 4.58408203 -20.26782227 4.04785156 C-13.59985991 -1.179356 -8.17967507 -0.93051186 0 0 Z " fill="#FE914E" transform="translate(1234.0625,203.375)"/>
<path d="M0 0 C0.70632568 0.24057129 1.41265137 0.48114258 2.14038086 0.72900391 C6.38325521 2.26880202 9.33057043 4.25969058 12.8125 7.0625 C15.62185577 7.97534389 18.39935691 8.55455788 21.2890625 9.15625 C24.42085504 10.28098045 25.31102584 11.0989346 26.8125 14.0625 C28.54701425 27.3448163 24.85683088 37.59949502 16.8125 48.0625 C13.94822055 51.53701941 10.9418862 54.82555716 7.8125 58.0625 C7.09707031 58.8153125 6.38164063 59.568125 5.64453125 60.34375 C-1.96692889 67.78490208 -14.25520641 76.84052706 -25.1875 78.0625 C-24.671875 77.19625 -24.15625 76.33 -23.625 75.4375 C-16.26163931 62.4926595 -10.87081846 49.48883064 -7.1875 35.0625 C-11.53429717 37.79770767 -15.25735733 40.77789073 -18.875 44.4375 C-19.38901367 44.95642822 -19.90302734 45.47535645 -20.43261719 46.01000977 C-29.81208192 55.66947996 -37.52365731 66.37731106 -44.1875 78.0625 C-44.65414062 78.87074219 -45.12078125 79.67898438 -45.6015625 80.51171875 C-47.60516338 84.11311862 -47.60516338 84.11311862 -48.10327148 88.12231445 C-46.73456884 91.02209582 -44.91714166 91.39160101 -41.97265625 92.54296875 C-40.89306641 92.98576172 -39.81347656 93.42855469 -38.70117188 93.88476562 C-36.43746536 94.78025564 -34.17189326 95.67104694 -31.90429688 96.55664062 C-20.40650842 101.29022512 -12.30916666 107.72949483 -7.18359375 119.21484375 C-4.69283991 126.33546943 -6.1329648 133.28492863 -9.1875 140.0625 C-15.92215 150.57630611 -25.60313067 158.30375841 -36 164.9609375 C-38.24055474 166.43816599 -40.36840176 167.92168743 -42.5 169.5390625 C-56.74228142 180.31209641 -75.27983059 189.56030004 -93.59375 187.8359375 C-99.42901091 186.72549606 -103.37214854 184.67848221 -107.1875 180.0625 C-111.15472485 173.92386509 -111.72691199 168.23967614 -111.1875 161.0625 C-110.60097656 161.3925 -110.01445312 161.7225 -109.41015625 162.0625 C-105.86893384 163.6557389 -102.79992298 163.08854955 -99.1875 162.0625 C-91.62567061 158.70555884 -84.73637306 153.96957732 -77.94921875 149.27978516 C-76.68862008 148.40875619 -75.42528144 147.54168737 -74.16015625 146.67724609 C-56.15959494 135.50821861 -56.15959494 135.50821861 -44.1875 119.0625 C-45.00927734 118.93294922 -45.00927734 118.93294922 -45.84765625 118.80078125 C-58.36605189 116.58207373 -71.21443757 113.41910656 -79.6640625 103.29296875 C-81.045824 101.27966595 -82.12050687 99.25925056 -83.1875 97.0625 C-83.65285156 96.16144531 -84.11820312 95.26039063 -84.59765625 94.33203125 C-89.27250516 84.05778114 -90.10508353 72.54698903 -87.30078125 61.6015625 C-86.11791555 58.60706529 -84.75831833 55.87153993 -83.1875 53.0625 C-82.7028125 52.12792969 -82.218125 51.19335938 -81.71875 50.23046875 C-74.66532077 37.31646964 -65.19703816 25.77795495 -55.1875 15.0625 C-52.89700305 12.47487783 -50.61032309 9.88400625 -48.328125 7.2890625 C-46.1875 5.0625 -46.1875 5.0625 -43.515625 2.9375 C-41.04224007 1.17900881 -41.04224007 1.17900881 -39.6875 -1.5625 C-32.95295339 -12.22553213 -9.56020681 -3.30566176 0 0 Z " fill="#FE914E" transform="translate(524.1875,337.9375)"/>
<path d="M0 0 C0.99 0.33 1.98 0.66 3 1 C7.57375471 36.44659901 -5.12792244 74.18467019 -26 103 C-31.80261564 110.30063785 -38.24281611 116.77881854 -46 122 C-50.32899662 118.10390304 -52.02725322 114.7153222 -52.3359375 108.91796875 C-52.36553635 107.34136989 -52.3776947 105.76437437 -52.375 104.1875 C-52.37556396 103.35379883 -52.37612793 102.52009766 -52.37670898 101.66113281 C-52.25381994 94.58863307 -50.94782139 88.28357437 -48.97265625 81.515625 C-47.92041105 78.01922806 -47.92041105 78.01922806 -47.51171875 74.40234375 C-47.00254608 71.01692853 -46.12571063 68.43397 -44.75 65.3125 C-42.73136489 60.69041643 -42.73136489 60.69041643 -40.83984375 56.015625 C-34.29214604 39.23576239 -23.21067748 26.06549885 -11.49755859 12.70898438 C-10.23009024 11.26257445 -8.96796282 9.811487 -7.70703125 8.359375 C-5.2100833 5.48442427 -2.7177102 2.66946682 0 0 Z " fill="#F1F1F3" transform="translate(987,634)"/>
<path d="M0 0 C3.41469085 40.21747005 -23.55530925 82.60324814 -48.20776367 112.07080078 C-50.45265871 114.73064369 -52.72502508 117.36581852 -55 120 C-56.08474609 121.27230469 -56.08474609 121.27230469 -57.19140625 122.5703125 C-67.93923749 134.97974583 -67.93923749 134.97974583 -74 137 C-73.48810815 130.14479974 -72.03701153 124.35857863 -69.625 117.9375 C-69.27123291 116.98488281 -68.91746582 116.03226562 -68.55297852 115.05078125 C-64.2736075 103.76922153 -59.2398423 92.86250413 -54 82 C-53.71622498 81.41053589 -53.43244995 80.82107178 -53.14007568 80.21374512 C-42.34981657 57.82686643 -30.99654095 35.91343963 -16 16 C-15.42636719 15.21496094 -14.85273437 14.42992187 -14.26171875 13.62109375 C-4.25913188 0 -4.25913188 0 0 0 Z " fill="#F1EFEE" transform="translate(1173,149)"/>
<path d="M0 0 C0.33 0 0.66 0 1 0 C2.14893713 20.20214452 -2.88757137 39.89204533 -9 59 C-9.32097656 60.01465332 -9.64195313 61.02930664 -9.97265625 62.07470703 C-26.86208678 114.85417743 -26.86208678 114.85417743 -42 124 C-45.6875 124.5625 -45.6875 124.5625 -49 124 C-52.9575602 120.43819582 -53.21070159 115.01986423 -53.5625 109.9375 C-53.45631826 101.20936115 -49.71051936 93.69536132 -46.24902344 85.83935547 C-44.96701536 82.92501732 -43.71986106 79.99744688 -42.4765625 77.06640625 C-16.61113151 16.61113151 -16.61113151 16.61113151 0 0 Z " fill="#EFEFF2" transform="translate(1168,590)"/>
<path d="M0 0 C1.50503361 0.5173553 3.0026868 1.05667852 4.4921875 1.6171875 C6.61857918 2.37391052 8.66433791 2.83634842 10.875 3.2734375 C15.41012086 4.61166989 17.34058428 6.13315387 20.6875 9.3984375 C22.51751836 13.05847423 22.73536859 16.44398105 21.6875 20.3984375 C19.52386392 22.86461591 17.13303634 24.78153889 14.58203125 26.84375 C11.41445397 29.63942549 9.06567792 32.58494096 6.5625 35.9609375 C2.19940283 41.7350143 -2.5426471 46.99680625 -7.625 52.1484375 C-8.2948291 52.8401001 -8.9646582 53.5317627 -9.65478516 54.24438477 C-13.34149178 57.91684458 -16.11061564 60.17076131 -21.3125 61.3984375 C-21.8075 61.8934375 -21.8075 61.8934375 -22.3125 62.3984375 C-24.66563555 62.47115491 -27.02083668 62.48214618 -29.375 62.4609375 C-30.66535156 62.45191406 -31.95570313 62.44289063 -33.28515625 62.43359375 C-34.28417969 62.42199219 -35.28320312 62.41039062 -36.3125 62.3984375 C-39.59573292 55.83197166 -35.45308323 45.4209123 -33.48828125 38.890625 C-32.02403013 34.54165323 -30.30054709 30.34984591 -28.46875 26.14453125 C-27.42558092 23.66700469 -26.55593914 21.21079837 -25.75 18.6484375 C-23.15687075 10.72578294 -20.22131814 5.3162908 -13.3125 0.3984375 C-9.28318675 -1.61621913 -4.27320107 -1.11160974 0 0 Z " fill="#FE924F" transform="translate(646.3125,227.6015625)"/>
<path d="M0 0 C0.66 0 1.32 0 2 0 C4.11534719 34.15893978 -10.77408172 80.1621753 -31.4140625 107.24609375 C-34.50054666 110.65947156 -37.12609023 112.83705132 -41.875 113.25 C-42.57625 113.1675 -43.2775 113.085 -44 113 C-48.17332328 105.52279579 -48.27815383 97.7620668 -46.07421875 89.55078125 C-44.538622 85.28825457 -42.8111806 81.15141658 -41 77 C-40.57074219 76.0006543 -40.14148438 75.00130859 -39.69921875 73.97167969 C-15.36871401 17.48536325 -15.36871401 17.48536325 0 0 Z " fill="#F2F0EF" transform="translate(997,270)"/>
<path d="M0 0 C3.21644498 3.21644498 3.21283837 6.76547709 3.375 11.1875 C3.31422345 21.06976776 0.14142281 32.51789425 -5 41 C-7.19140625 42.64453125 -7.19140625 42.64453125 -9.5625 43.8125 C-10.34753906 44.21082031 -11.13257813 44.60914063 -11.94140625 45.01953125 C-12.62074219 45.34308594 -13.30007813 45.66664063 -14 46 C-14.99 46.495 -14.99 46.495 -16 47 C-17.66444461 47.0955931 -19.33281963 47.12984645 -21 47.125 C-21.886875 47.12757813 -22.77375 47.13015625 -23.6875 47.1328125 C-26 47 -26 47 -28 46 C-26.3591558 29.81438873 -11.31695721 11.31695721 0 0 Z " fill="#ECEBEA" transform="translate(1250,236)"/>
<path d="M0 0 C0.66 0.33 1.32 0.66 2 1 C0.35 3.64 -1.3 6.28 -3 9 C-4 7 -4 7 -3.1875 3.9375 C-2 1 -2 1 0 0 Z " fill="#BFC8ED" transform="translate(1055,763)"/>
<path d="M0 0 C0.66 0.33 1.32 0.66 2 1 C0.35 3.64 -1.3 6.28 -3 9 C-4 7 -4 7 -3.1875 3.9375 C-2 1 -2 1 0 0 Z " fill="#EBDAD0" transform="translate(896,425)"/>
<path d="M0 0 C1.0326802 2.78823655 1.04509293 3.8677274 0.0625 6.75 C-0.288125 7.4925 -0.63875 8.235 -1 9 C-2.1875 7.3125 -2.1875 7.3125 -3 5 C-1.625 2.25 -1.625 2.25 0 0 Z " fill="#FDA975" transform="translate(1160,299)"/>
</svg>
